<svg xmlns="http://www.w3.org/2000/svg"  width="240px" height="213px" viewBox="0 0 240 213">
<g transform="translate(0,213) scale(0.100000,-0.100000)"
fill="#537777" stroke="none">
<path d="M0 1065 l0 -1065 1200 0 1200 0 0 1065 0 1065 -1200 0 -1200 0 0
-1065z m2188 21 c1 -715 -1 -982 -9 -992 -10 -12 -174 -14 -966 -14 -639 0
-961 3 -974 10 -19 10 -19 32 -19 989 0 538 3 981 7 984 3 4 446 6 982 5 l976
-3 3 -979z"/>
<path d="M295 2000 c-10 -16 -9 -544 1 -547 5 -2 17 17 27 41 80 194 324 416
540 489 9 4 17 11 17 17 0 13 -576 14 -585 0z"/>
<path d="M1520 1995 c0 -8 8 -15 18 -15 24 0 137 -58 220 -114 37 -24 96 -75
132 -113 106 -111 133 -150 184 -256 21 -43 40 -76 43 -73 4 4 7 511 3 579 0
4 -135 7 -300 7 -260 0 -300 -2 -300 -15z"/>
<path d="M1090 1974 c-118 -17 -200 -42 -315 -99 l-90 -44 155 -1 c150 -1 260
-10 308 -25 21 -7 22 -6 12 19 -15 40 -12 108 5 133 8 12 28 24 43 26 25 4 25
4 2 4 -14 1 -68 -5 -120 -13z"/>
<path d="M1257 1962 c12 -9 34 -25 49 -36 32 -23 70 -103 79 -168 6 -41 11
-48 29 -48 12 0 26 4 32 9 17 17 216 44 282 38 45 -5 62 -3 62 6 0 25 -187
133 -290 167 -69 23 -198 50 -240 49 l-25 0 22 -17z"/>
<path d="M594 1751 c-54 -33 -170 -183 -211 -273 -77 -168 -88 -219 -88 -413
0 -199 8 -235 83 -395 74 -156 187 -284 329 -373 46 -29 71 -34 77 -14 3 6 12
48 21 92 27 126 55 247 65 280 5 17 17 57 26 90 19 69 47 159 80 260 13 39 39
133 59 210 20 77 40 154 45 170 25 80 50 154 64 187 9 21 16 42 16 48 0 32
-274 120 -420 135 -30 3 -68 8 -85 10 -19 3 -42 -2 -61 -14z"/>
<path d="M1735 1669 c-106 -23 -166 -39 -190 -49 -11 -5 -37 -14 -57 -20 -57
-17 -61 -27 -49 -122 6 -46 18 -119 26 -163 31 -171 46 -253 59 -320 29 -146
48 -242 61 -310 8 -38 21 -101 29 -140 8 -38 22 -107 30 -153 17 -90 21 -102
38 -102 33 0 206 165 268 255 35 51 100 173 100 188 0 5 6 23 14 40 60 137 63
395 5 577 -35 110 -100 228 -166 300 -40 46 -47 46 -168 19z"/>
<path d="M1220 917 c-16 -12 -68 -94 -112 -177 -14 -25 -48 -88 -78 -140 -29
-52 -73 -133 -98 -180 -25 -47 -58 -105 -73 -129 -15 -24 -25 -50 -22 -57 11
-28 250 -84 362 -84 112 0 258 32 369 81 l43 19 -26 43 c-14 23 -48 87 -74
142 -65 134 -74 155 -116 260 -20 50 -43 104 -51 122 -8 17 -14 38 -14 46 0
42 -78 80 -110 54z"/>
<path d="M2100 697 c0 -25 -72 -153 -126 -224 -92 -119 -213 -218 -356 -287
l-73 -36 288 3 288 2 2 278 c2 216 -1 277 -10 277 -7 0 -13 -6 -13 -13z"/>
<path d="M289 683 c0 -5 0 -125 0 -268 l1 -260 282 -2 283 -2 -85 41 c-47 22
-87 44 -90 47 -3 3 -25 20 -50 36 -106 71 -250 240 -303 358 -25 53 -36 67
-38 50z"/>
</g>
</svg>
